<mxfile host="app.diagrams.net" modified="2024-03-18T02:33:37.116Z" agent="Mozilla/5.0 (Windows NT 10.0; Win64; x64) AppleWebKit/537.36 (KHTML, like Gecko) Chrome/122.0.0.0 Safari/537.36" version="24.0.7" etag="OM4vHbn7dbkb2ebBAlEc" type="github">
  <diagram name="Trang-1" id="uYD52LY6R5gOKYNSEwH0">
    <mxGraphModel>
      <root>
        <mxCell id="0" />
        <mxCell id="1" parent="0" />
      </root>
    </mxGraphModel>
  </diagram>
</mxfile>
